<svg height="512" viewBox="0 0 512 512" width="512" xmlns="http://www.w3.org/2000/svg" xmlns:xlink="http://www.w3.org/1999/xlink"><linearGradient id="linear-gradient" gradientUnits="userSpaceOnUse" x2="512" y1="256" y2="256"><stop offset="0" stop-color="#fcac6b"/><stop offset="1" stop-color="#f33"/></linearGradient><g id="Layer_2" data-name="Layer 2"><g id="Layer_1-2" data-name="Layer 1"><g id="K"><rect fill="url(#linear-gradient)" height="512" rx="122.71" width="512"/><path d="m382.89 419.28a9.46 9.46 0 0 1 -1.47 5.24c-1 1.52-2.87 2.78-5.65 3.76a53.23 53.23 0 0 1 -11.41 2.28 169.49 169.49 0 0 1 -18.26.81q-17.46 0-25.11-1.35t-11-4a19.06 19.06 0 0 1 -5.24-6.45l-105-164.89v164.87a8.28 8.28 0 0 1 -1.61 5.1 12 12 0 0 1 -5.64 3.63 49.71 49.71 0 0 1 -10.75 2.28 148.31 148.31 0 0 1 -17.18.81 149.31 149.31 0 0 1 -17.06-.81 49.81 49.81 0 0 1 -10.87-2.28 13 13 0 0 1 -5.78-3.63 7.84 7.84 0 0 1 -1.74-5.1v-327.37a7.84 7.84 0 0 1 1.74-5.1 12.34 12.34 0 0 1 5.78-3.49 56.32 56.32 0 0 1 10.87-2.15 149.31 149.31 0 0 1 17.06-.81 148.31 148.31 0 0 1 17.18.81 56.28 56.28 0 0 1 10.75 2.15 11.42 11.42 0 0 1 5.64 3.49 8.28 8.28 0 0 1 1.61 5.1v148l101.77-147.73a18.2 18.2 0 0 1 11.55-9.4 51.92 51.92 0 0 1 11-1.88q6.71-.54 17.19-.54a159 159 0 0 1 17.72.81 53 53 0 0 1 11.15 2.28c2.77 1 4.7 2.2 5.77 3.63a7.87 7.87 0 0 1 1.61 4.83 20.82 20.82 0 0 1 -2.42 9.4q-2.42 4.83-9.13 15.31l-95.32 124.88 103.93 157.1q5.9 11 7.11 14.64a19.3 19.3 0 0 1 1.21 5.77z" fill="#fff"/></g></g></g></svg>